<svg version="1.1" id="Layer_1" xmlns="http://www.w3.org/2000/svg" xmlns:xlink="http://www.w3.org/1999/xlink" x="0px" y="0px"
 width="100%" viewBox="0 0 432 352" enable-background="new 0 0 432 352" xml:space="preserve">
<path fill="#000000" opacity="1.000000" stroke="none" 
d="
M162.142853,53.610741 
C182.037766,57.833389 196.515671,68.911179 207.428360,85.361549 
C220.687729,105.349411 234.323013,125.087929 247.803787,144.928802 
C248.729813,146.291748 249.723251,147.608887 250.694061,148.959473 
C253.125214,148.367630 253.882187,146.380676 254.957184,144.799683 
C275.188934,115.044540 295.433563,85.297905 315.538574,55.457226 
C317.473175,52.585793 319.629913,51.552597 322.954834,51.631416 
C330.281891,51.805092 337.631927,51.977810 344.941681,51.580956 
C350.059418,51.303104 351.425323,53.100098 351.407623,58.104542 
C351.235382,106.756432 351.295807,155.409149 351.294586,204.061630 
C351.294037,225.721970 351.305237,247.382324 351.308716,269.042664 
C351.309906,276.319733 351.306488,276.321381 343.799896,276.321228 
C337.135162,276.321106 330.457397,276.061188 323.810150,276.401154 
C319.107758,276.641663 317.796967,274.808716 317.808929,270.336670 
C317.941833,220.684891 317.927277,171.032700 317.952271,121.380623 
C317.953583,118.785507 317.952423,116.190384 317.952423,113.595268 
C317.523987,113.462143 317.095551,113.329025 316.667114,113.195908 
C295.143768,145.299500 273.620392,177.403091 252.114456,209.480713 
C249.172165,208.304169 248.309311,205.981064 247.053421,204.132980 
C225.146286,171.896042 203.117081,139.739517 181.521652,107.294449 
C171.515030,92.260452 158.248444,84.687256 140.058258,85.272614 
C126.742630,85.701111 113.398468,85.178284 100.074593,85.450195 
C95.501717,85.543518 92.275871,84.113701 89.190025,80.803978 
C81.466965,72.520622 73.412361,64.546654 65.509987,56.429863 
C64.486687,55.378796 63.196434,54.487545 62.927700,52.787014 
C64.054886,50.985439 65.902802,51.729824 67.415146,51.727188 
C94.073944,51.680710 120.732857,51.695133 147.391739,51.707539 
C152.245499,51.709797 156.995514,52.566090 162.142853,53.610741 
z"/>
<path fill="#000000" opacity="1.000000" stroke="none" 
d="
M127.517654,204.462158 
C120.896446,196.514130 114.490067,188.849442 108.117149,181.157028 
C103.612160,175.719269 105.880867,169.387558 106.129547,163.432220 
C106.224281,161.163559 109.062569,161.780609 110.780350,161.770370 
C122.269768,161.701889 133.760147,161.781647 145.249374,161.697708 
C164.420273,161.557648 178.534073,150.162292 182.816025,131.509521 
C183.137390,130.109573 183.195969,128.549454 184.632278,127.488670 
C187.364105,128.843613 188.325684,131.661224 189.897736,133.919907 
C195.033112,141.298325 199.967484,148.818771 205.202026,156.124939 
C207.171768,158.874237 207.066757,160.952362 205.179825,163.713776 
C195.942368,177.232483 183.255051,185.767624 167.705658,190.348129 
C165.669861,190.947830 163.416641,191.056808 161.159134,193.394043 
C183.852142,220.491440 206.582260,247.633163 229.496704,274.994965 
C226.239136,276.935516 223.701660,276.256744 221.299896,276.278351 
C211.809113,276.363708 202.309174,276.079956 192.829041,276.407928 
C188.490936,276.558014 185.752289,274.926910 183.119980,271.720764 
C164.736969,249.330368 146.220505,227.049545 127.517654,204.462158 
z"/>
</svg>